<svg width="192" height="58" viewBox="0 0 192 58" xmlns="http://www.w3.org/2000/svg"><title>Group</title><path d="M0 .344v6.323h3.944L3.939.344H0zM0 45.06h3.944V12.738H0V45.06zm9.432 0h3.942l-.004-18.042c.066-6.742 2.827-11.887 9.658-11.887 5.014 0 6.836 3.629 6.763 8.009v21.92h3.939V26.772c0-6.006 1.945-11.64 8.784-11.64 5.635 0 7.64 2.87 7.648 8.199V45.06h3.936V23.14c0-7.639-3.638-11.326-10.713-11.326-4.257 0-8.338 2.06-10.267 6.316-1.2-4.255-5.023-6.326-9.285-6.326-5.129 0-8.516 2.508-10.582 6.382h-.187v-5.437H9.416l.016 32.31zM63.09 22.642c.136-5.26 3.752-7.51 8.653-7.51 4.624 0 8.46 1.313 8.46 6.641 0 3.564-1.814 4-5.078 4.373-8.517 1.002-17.353 1.318-17.353 10.39 0 6.518 4.901 9.45 10.823 9.45 6.216 0 9.04-2.362 11.795-6.566h.115c0 3.388.642 5.64 4.646 5.64 1.062 0 1.688-.074 2.56-.251v-3.317a3.676 3.676 0 0 1-1.248.247c-1.555 0-2.327-.879-2.327-2.383V22.208c0-8.649-6.191-10.394-11.892-10.394-7.396 0-12.715 3.257-13.1 10.828h3.946zm17.113 9.888c.059 6.316-5.257 10.142-11.283 10.142-3.682 0-7.202-2.437-7.202-6.383 0-6.321 8.335-6.274 15.034-7.445 1.066-.196 2.824-.508 3.318-1.45h.133v5.136zm37.051-19.781h-3.95v5.575h-.13c-1.566-3.576-5.574-6.51-10.26-6.51-9.337 0-14.62 7.383-14.603 16.276 0 9.208 4.264 16.595 14.602 16.595 4.641 0 8.443-2.692 10.26-6.642h.13v4.39c0 7.882-3.125 12.202-10.39 12.202-4.391 0-8.587-1.675-9.462-6.447h-3.944c.554 6.887 6.957 9.769 13.406 9.769 10.569 0 14.267-5.885 14.341-15.524V12.749zm-14.34 28.62c-7.281 0-10.659-6.33-10.659-12.837 0-6.701 3.131-13.397 10.658-13.397 7.463 0 10.39 7.074 10.39 13.397 0 6.57-3.572 12.838-10.39 12.838zM122.73 6.674h3.945V.344h-3.944v6.33zm0 38.387h3.945V12.748h-3.944v32.313zm9.367 0h3.942V26.208c.121-6.313 3.876-11.076 10.144-11.076 6.394 0 8.2 4.186 8.2 9.766v20.163h3.972V24.274c0-7.703-2.77-12.46-11.85-12.46-4.57 0-8.898 2.634-10.345 6.51h-.12v-5.575h-3.943V45.06zm35.186-22.419c.135-5.26 3.754-7.51 8.653-7.51 4.617 0 8.456 1.313 8.456 6.641 0 3.568-1.813 4.013-5.079 4.373-8.52 1.002-17.356 1.318-17.356 10.412 0 6.496 4.888 9.442 10.838 9.442 6.198 0 9.029-2.376 11.776-6.58h.135c0 3.388.627 5.641 4.636 5.641 1.059 0 1.693-.064 2.562-.252v-3.317a3.797 3.797 0 0 1-1.254.247c-1.56 0-2.313-.879-2.313-2.383V22.21c0-8.65-6.21-10.396-11.91-10.396-7.393 0-12.706 3.257-13.084 10.828h3.94zm17.109 9.888c.052 6.334-5.27 10.157-11.267 10.157-3.714 0-7.221-2.452-7.221-6.398 0-6.306 8.342-6.274 15.038-7.445 1.069-.196 2.818-.508 3.315-1.444h.135v5.13z" fill="#FFF" fill-rule="evenodd"/></svg>