<?xml version="1.0" encoding="utf-8"?>
<!-- Generator: Adobe Illustrator 27.5.0, SVG Export Plug-In . SVG Version: 6.00 Build 0)  -->
<svg version="1.1" id="Layer_1" xmlns="http://www.w3.org/2000/svg" xmlns:xlink="http://www.w3.org/1999/xlink" x="0px" y="0px"
	 viewBox="0 0 145 42.5" style="enable-background:new 0 0 145 42.5;" xml:space="preserve">
<style type="text/css">
	.st0{fill:#423F40;}
	.st1{fill:none;stroke:#423F40;stroke-width:0.2702;stroke-miterlimit:10;}
	.st2{fill:#81202C;}
	.st3{fill:none;}
</style>
<g>
	<g>
		<g>
			<path class="st0" d="M41.1,42.5v-3.9h0.5v3.9H41.1z"/>
			<path class="st0" d="M45.1,42.5v-3.9h0.5L47,41l0.4,0.8h0c0-0.2,0-0.4,0-0.6s0-0.4,0-0.6v-2h0.5v3.9h-0.5L45.9,40l-0.4-0.8h0
				c0,0.2,0,0.4,0,0.6c0,0.2,0,0.4,0,0.6v2.1H45.1z"/>
			<path class="st0" d="M51.4,42.5v-3.9H52l0.8,2.1c0,0.1,0.1,0.3,0.1,0.4c0,0.1,0.1,0.3,0.1,0.4h0c0-0.1,0.1-0.3,0.1-0.4
				c0-0.1,0.1-0.3,0.1-0.4l0.7-2.1h0.6v3.9h-0.5v-2.2c0-0.2,0-0.4,0-0.6c0-0.2,0-0.4,0-0.6h0L53.9,40l-0.7,2h-0.3l-0.7-2l-0.3-0.9h0
				c0,0.2,0,0.4,0,0.6c0,0.2,0,0.4,0,0.6v2.2H51.4z"/>
			<path class="st0" d="M59.6,42.6c-0.3,0-0.6-0.1-0.9-0.3c-0.3-0.2-0.5-0.4-0.6-0.7c-0.1-0.3-0.2-0.7-0.2-1.1
				c0-0.4,0.1-0.8,0.2-1.1c0.1-0.3,0.3-0.5,0.6-0.7c0.3-0.2,0.5-0.2,0.9-0.2c0.3,0,0.6,0.1,0.9,0.2c0.3,0.2,0.5,0.4,0.6,0.7
				c0.1,0.3,0.2,0.7,0.2,1.1c0,0.4-0.1,0.8-0.2,1.1c-0.1,0.3-0.3,0.5-0.6,0.7C60.2,42.5,59.9,42.6,59.6,42.6z M59.6,42.1
				c0.2,0,0.4-0.1,0.6-0.2c0.2-0.1,0.3-0.3,0.4-0.6c0.1-0.2,0.1-0.5,0.1-0.9c0-0.5-0.1-0.9-0.3-1.2c-0.2-0.3-0.5-0.4-0.8-0.4
				c-0.4,0-0.6,0.1-0.8,0.4c-0.2,0.3-0.3,0.7-0.3,1.2c0,0.3,0,0.6,0.1,0.9c0.1,0.2,0.2,0.4,0.4,0.6C59.2,42,59.4,42.1,59.6,42.1z"/>
			<path class="st0" d="M64.6,42.5v-3.9h1.2c0.3,0,0.5,0,0.7,0.1c0.2,0.1,0.4,0.2,0.5,0.3c0.1,0.1,0.2,0.3,0.2,0.6
				c0,0.2,0,0.4-0.1,0.5c-0.1,0.2-0.2,0.3-0.4,0.3v0c0.2,0,0.4,0.1,0.6,0.3c0.2,0.2,0.2,0.4,0.2,0.6c0,0.3-0.1,0.5-0.2,0.6
				c-0.1,0.2-0.3,0.3-0.5,0.4c-0.2,0.1-0.5,0.1-0.8,0.1H64.6z M65.1,40.2h0.6c0.3,0,0.6-0.1,0.7-0.2c0.1-0.1,0.2-0.3,0.2-0.5
				c0-0.2-0.1-0.4-0.2-0.5c-0.2-0.1-0.4-0.1-0.7-0.1h-0.6V40.2z M65.1,42.1h0.7c0.3,0,0.6-0.1,0.8-0.2c0.2-0.1,0.3-0.3,0.3-0.6
				c0-0.2-0.1-0.4-0.3-0.5c-0.2-0.1-0.5-0.2-0.8-0.2h-0.7V42.1z"/>
			<path class="st0" d="M70.5,42.5v-3.9H71v3.9H70.5z"/>
			<path class="st0" d="M74.5,42.5v-3.9H75v3.5h1.7v0.4H74.5z"/>
			<path class="st0" d="M79.8,42.5v-3.9h0.5v3.9H79.8z"/>
			<path class="st0" d="M83.3,42.5l1.3-3.9h0.6l1.3,3.9H86l-0.4-1.2h-1.4l-0.4,1.2H83.3z M84.5,40.3l-0.2,0.6h1.2l-0.2-0.6
				c-0.1-0.2-0.1-0.4-0.2-0.7c-0.1-0.2-0.1-0.4-0.2-0.7h0c-0.1,0.2-0.1,0.5-0.2,0.7C84.6,39.8,84.6,40,84.5,40.3z"/>
			<path class="st0" d="M89.5,42.5v-3.9h1.2c0.3,0,0.5,0,0.7,0.1c0.2,0.1,0.4,0.2,0.5,0.3c0.1,0.2,0.2,0.4,0.2,0.7
				c0,0.3-0.1,0.6-0.2,0.7c-0.2,0.2-0.4,0.3-0.7,0.4l1,1.7h-0.6l-1-1.7H90v1.7H89.5z M90,40.4h0.7c0.3,0,0.5-0.1,0.7-0.2
				c0.2-0.1,0.2-0.3,0.2-0.6c0-0.3-0.1-0.4-0.2-0.5s-0.4-0.2-0.7-0.2H90V40.4z"/>
			<path class="st0" d="M95.3,42.5v-3.9h0.5v3.9H95.3z"/>
			<path class="st0" d="M98.8,42.5l1.3-3.9h0.6l1.3,3.9h-0.5l-0.4-1.2h-1.4l-0.4,1.2H98.8z M100,40.3l-0.2,0.6h1.2l-0.2-0.6
				c-0.1-0.2-0.1-0.4-0.2-0.7c-0.1-0.2-0.1-0.4-0.2-0.7h0c-0.1,0.2-0.1,0.5-0.2,0.7C100.2,39.8,100.1,40,100,40.3z"/>
		</g>
		<g>
			<g>
				<line class="st1" x1="114.4" y1="40.1" x2="140.6" y2="40.1"/>
			</g>
			<g>
				<line class="st1" x1="4.4" y1="40.1" x2="30.6" y2="40.1"/>
			</g>
		</g>
	</g>
	<g>
		<path class="st2" d="M88.8,33.3l0-2.9c-1.4,2.3-3.6,3.5-6.5,3.5c-1.5,0-2.9-0.3-4.1-0.9c-1.2-0.6-2.3-1.4-3.2-2.5
			c-0.9-1.1-1.6-2.4-2.1-4c-0.5-1.6-0.8-3.3-0.8-5.3c0-1.8,0.2-3.4,0.6-4.9c0.4-1.5,1.1-2.8,1.9-3.8c0.8-1.1,1.8-1.9,3-2.5
			c1.2-0.6,2.5-0.9,4.1-0.9c2.9,0,5.2,1.2,7,3.7V1.3c0,0,1.5,1,3.1,1c1.9,0,3-1,3-1v32H88.8z M83.7,28.8c1.5,0,2.7-0.6,3.7-1.9
			c1-1.2,1.5-2.9,1.5-4.9c0-5.1-1.7-7.6-5.2-7.6c-3.6,0-5.3,2.4-5.3,7.2c0,2.1,0.5,3.8,1.5,5.1C80.9,28.2,82.1,28.8,83.7,28.8z"/>
		<path class="st2" d="M138.4,33.3l0-2.9c-1.4,2.3-3.6,3.5-6.5,3.5c-1.5,0-2.9-0.3-4.1-0.9c-1.2-0.6-2.3-1.4-3.2-2.5
			c-0.9-1.1-1.6-2.4-2.1-4c-0.5-1.6-0.8-3.3-0.8-5.3c0-1.8,0.2-3.4,0.6-4.9c0.4-1.5,1.1-2.8,1.9-3.8c0.8-1.1,1.8-1.9,3-2.5
			c1.2-0.6,2.5-0.9,4.1-0.9c2.9,0,5.2,1.2,7,3.7V1.3c0,0,1.5,1,3.1,1c1.9,0,3-1,3-1v32H138.4z M133.2,28.8c1.5,0,2.7-0.6,3.7-1.9
			c1-1.2,1.5-2.9,1.5-4.9c0-5.1-1.7-7.6-5.2-7.6c-3.6,0-5.3,2.4-5.3,7.2c0,2.1,0.5,3.8,1.5,5.1C130.4,28.2,131.7,28.8,133.2,28.8z"
			/>
		<path class="st2" d="M97.5,33.3V9.8h5.8v2.8c0.5-0.8,1-1.4,1.6-1.9c0.6-0.4,1.1-0.8,1.7-1c0.6-0.2,1.2-0.4,1.8-0.5
			c0.6-0.1,1.2-0.1,1.9-0.1h0.8v6.3c-0.6-0.1-1.1-0.1-1.7-0.1c-3.8,0-5.7,1.9-5.7,5.7v12.2H97.5z"/>
		<path class="st2" d="M112.9,33.3V9.8c0,0,1.2,0.8,3.1,0.8c1.9,0,3.1-0.8,3.1-0.8v23.4H112.9z"/>
		<circle class="st2" cx="116" cy="5.1" r="3.8"/>
		<path class="st2" d="M64.1,33.3c-0.2-0.6-0.3-1.3-0.4-2.1c-0.7,0.8-1.7,1.5-2.9,2c-1.2,0.5-2.6,0.7-4.2,0.7
			c-2.7,0-4.7-0.6-5.9-1.8c-1.3-1.2-1.9-2.7-1.9-4.6c0-1.7,0.3-3,0.8-4c0.5-1,1.3-1.8,2.2-2.4c1-0.6,2.1-1,3.4-1.3
			c1.3-0.3,2.8-0.5,4.3-0.7c1.6-0.2,2.6-0.5,3.1-0.9c0.5-0.4,0.8-1,0.8-1.8c0-0.8-0.4-1.4-1.1-1.8c-0.7-0.4-1.7-0.6-2.9-0.6
			c-1.4,0-2.5,0.3-3.1,1c-0.6,0.6-1,1.5-1.2,2.5h-5.8c0-1.2,0.2-2.3,0.6-3.3c0.4-1,1-1.9,1.8-2.6c0.8-0.7,1.9-1.3,3.2-1.7
			c1.3-0.4,2.9-0.6,4.8-0.6c1.8,0,3.4,0.2,4.7,0.6c1.3,0.4,2.3,1,3.1,1.8c0.8,0.8,1.3,1.7,1.7,2.9c0.3,1.2,0.5,2.5,0.5,3.9v14.8
			H64.1z M63.7,21.8c-0.3,0.3-0.8,0.6-1.4,0.8c-0.6,0.2-1.5,0.4-2.6,0.6c-1.8,0.3-3,0.8-3.7,1.3c-0.7,0.5-1,1.3-1,2.3
			c0,1.7,1,2.6,3,2.6c0.8,0,1.5-0.1,2.2-0.4c0.7-0.3,1.3-0.6,1.8-1.1c0.5-0.5,0.9-1,1.2-1.6c0.3-0.6,0.5-1.3,0.5-2L63.7,21.8z"/>
		<g>
			<path class="st2" d="M40.7,23.1c-0.7-0.7-1.4-1.4-2-2.2v6.3c1.7,1.7,3.6,3.2,6,3.8c0.8,0.1,1.6,0.2,2.4,0.5V28
				c-0.1-0.1-0.3-0.2-0.4-0.2C44.6,26.4,42.5,24.9,40.7,23.1z"/>
			<path class="st2" d="M38.7,27.7v5.5h8.4v-1.4c-0.8-0.2-1.6-0.4-2.4-0.5c0,0,0,0,0,0c0,0,0,0,0,0c-1.9-0.5-3.6-1.6-5.1-2.9
				C39.2,28.2,39,28,38.7,27.7z"/>
			<path class="st2" d="M23.1,11.7c-0.4,0.5-0.5,1.3-0.5,1.9c0,1.9,0.9,3.6,1.9,5.1c1,1.7,2.3,3.2,3.5,4.8c0.1,0.1,0.1,0.2,0.2,0.3
				v-4.4c-0.4-0.5-0.7-1-1.1-1.5c-0.9-1.2-1.7-2.4-2.3-3.7c-0.1-0.2,0.2-0.4,0.3-0.2c0.7,1.5,1.6,2.8,2.6,4.1
				c0.2,0.2,0.4,0.5,0.5,0.8v-4.9c0,0,0,0,0,0c-0.9-0.9-1.8-1.7-2.9-2.4C24.6,11.2,23.7,11,23.1,11.7z"/>
			<path class="st2" d="M21.9,33.3h3.5c-1.6-2-3-4-4.3-6.2c-0.5-0.9-1-1.9-1.5-2.8V30C20.3,31.1,21.1,32.2,21.9,33.3z"/>
			<path class="st2" d="M43.6,21c-1.7-1.8-3.3-3.6-4.9-5.5v4.9c0.1,0.1,0.2,0.3,0.3,0.4c0.7,0.8,1.4,1.6,2.2,2.4
				c0.9,0.9,1.8,1.6,2.8,2.4c1,0.7,2,1.4,3.1,2.1v-3.2C45.8,23.4,44.7,22.2,43.6,21z"/>
			<path class="st2" d="M27.2,7.7c-0.7-0.4-1.5-0.5-2.4-0.5c-0.8,0-1.6,0.1-2.3,0.5c-1.5,0.8-2.5,2.6-2.7,4.2c-0.1,1-0.1,2,0,3
				c0,1.1,0.2,2.2,0.7,3.3c0.6,1.1,1.3,2.1,1.9,3.2c1.9,3.4,3.9,6.8,5.8,10.1v-7.2c-0.6-0.7-1.1-1.4-1.7-2.2
				c-1.3-1.7-2.7-3.5-3.5-5.5c-0.6-1.3-0.9-2.9-0.5-4.3c0.1-0.5,0.4-1,0.9-1.3c0.6-0.3,1.4-0.1,2,0.1c0,0,0,0,0,0c0,0,0,0,0,0
				c1,0.6,1.9,1.4,2.8,2.2c0.1-1.5,0.5-2.9,1.2-4c0,0-0.1-0.1-0.1-0.1C28.6,8.7,28,8.1,27.2,7.7z"/>
			<path class="st2" d="M36.5,0c-0.2,0-0.3,0-0.5,0c-0.4,0-0.9,0-1.3,0.1c4.5,5.3,7.8,11.5,12.4,16.7v-5.2c-1.6-1.8-3.3-3.5-4.9-5.3
				c-0.5-0.7-1-1.3-1.5-2C39.3,2.7,38,1.3,36.5,0z"/>
			<path class="st2" d="M40.9,1c-0.1-0.1-0.3-0.1-0.4-0.2c-1.1-0.4-2.2-0.7-3.4-0.8c2,1.8,3.7,3.9,5.3,6c1.6,1.7,3.1,3.4,4.7,5.1
				v-0.3c0-1.2-0.2-2.3-0.5-3.4c-0.6-0.7-1.2-1.4-1.9-2C43.4,3.9,42.2,2.4,40.9,1z"/>
			<path class="st2" d="M6.5,18.5c0.7-1.8,1.2-3.8,1.6-5.7c0.5-1.9,1-3.7,1.8-5.5c0.7-1.7,1.6-3.4,2.6-4.9c0.4-0.6,0.8-1.2,1.2-1.8
				C13.4,0.8,13,1,12.7,1.2c-1.5,0.8-2.9,2.3-4,4.4V3.2C8.5,3.6,8.3,4,8.2,4.5c-2,5.1-2.1,10.9-4.7,15.8c-0.6,1.1-1.3,2.3-2,3.3
				c-0.3,0.4-0.5,0.9-0.8,1.3v3c1.1-1.3,2.2-2.7,3.2-4.2C4.9,22.1,5.8,20.4,6.5,18.5z"/>
			<path class="st2" d="M20.8,4c0.7-0.5,1.6-0.7,2.5-0.8c1,0,1.9,0.2,2.8,0.5c-0.3-0.3-0.5-0.6-0.8-0.9c-0.3-0.3-0.6-0.6-0.9-0.9
				C24,2,23.6,2.3,23.1,2.5C22.3,2.9,21.5,3.4,20.8,4z"/>
			<path class="st2" d="M27.7,4.3c0.2,0.1,0.3,0.2,0.5,0.2c1.4,0.7,2.7,1.6,3.9,2.7c0.5-0.2,1-0.3,1.6-0.3c1.5,0,2.8,0.6,3.7,1.8
				c0.9,1.2,1.4,2.8,1.4,4.8V15c1.7,2.1,3.5,4.1,5.3,6.1c1,1,2,2,3,2.9v-3.5c-1.4-1.5-2.7-3.1-4-4.7c-2.1-2.6-4.1-5.2-6.2-7.9
				c-1.5-1.9-2.9-3.8-4.8-5.3c-0.6-0.5-1.3-0.8-2-1.1C29.2,2.2,28.4,3.1,27.7,4.3z"/>
			<path class="st2" d="M28.2,33.3v-1.1c-0.1-0.2-0.2-0.3-0.3-0.5c-2.5-4.5-5-8.9-7.7-13.3c-0.3-0.7-0.5-1.4-0.6-2.1v7.3
				c1.6,3.5,3.7,6.8,6.2,9.8H28.2z"/>
			<path class="st2" d="M0.7,0.8C0.7,0.9,0.7,0.9,0.7,0.8l0,9.4c0.9-2.8,1.8-5.6,2.8-8.4C1.9,1.6,0.8,0.9,0.7,0.8z"/>
			<path class="st2" d="M1.6,22.8c1.5-2.3,2.7-4.7,3.4-7.4c0.7-2.8,1.2-5.7,2-8.5c0.4-1.5,1-3,1.7-4.5V0.8c0,0-0.9,0.6-2.2,0.9
				c-0.4,0.9-0.7,1.9-1,2.9C4.8,7,4.3,9.3,3.7,11.6c-0.6,2.3-1.2,4.6-2.2,6.7C1.2,18.9,1,19.5,0.7,20v4.3C1,23.8,1.3,23.3,1.6,22.8z
				"/>
			<path class="st2" d="M2.1,15.9c0.7-2.1,1.2-4.2,1.7-6.3c0.2-0.9,0.5-1.9,0.7-2.8C5,5.1,5.5,3.5,6.1,1.9C5.7,1.9,5.2,2,4.7,2
				C4.4,2,4.1,2,3.8,1.9C3.6,2.6,3.3,3.3,3,4.1c-0.8,2.4-1.6,4.8-2.4,7.2v8C1.2,18.2,1.7,17.1,2.1,15.9z"/>
			<path class="st2" d="M9.2,27.8c-0.5,1.2-1.2,2.3-1.9,3.4c-0.6,0.8-1.2,1.5-1.9,2.1h3.8V27.8z"/>
			<path class="st2" d="M5.9,32.4c1.2-1.3,2.2-2.9,2.9-4.5C9,27.6,9.1,27.3,9.2,27v-6.8c-0.9,1.9-1.8,3.7-2.8,5.4
				c-1.3,2.2-2.7,4.5-4.5,6.4c-0.4,0.4-0.8,0.8-1.2,1.1v0.2H5C5.3,33,5.6,32.7,5.9,32.4z"/>
			<path class="st2" d="M2.3,31c1.6-1.9,2.9-4.1,4.2-6.3c1-1.8,1.9-3.5,2.7-5.4v-5.8c0-3.3,1.1-5.3,3.2-6c0.4-1.2,0.9-2.3,1.6-3.4
				c0.5-0.8,1.2-1.6,1.8-2.3C16.4,1.2,17,0.6,17.7,0c-1.3,0-2.4,0.2-3.4,0.5c-0.9,1.2-1.8,2.5-2.5,3.9c-1,1.7-1.8,3.5-2.4,5.4
				c-0.6,1.9-1.1,3.8-1.6,5.8c-0.5,1.9-1.1,3.7-2,5.4c-0.8,1.7-1.9,3.3-3,4.9c-0.7,0.9-1.4,1.8-2.1,2.6v4.3
				C1.3,32.1,1.8,31.6,2.3,31z"/>
			<path class="st2" d="M19.3,10.5c0.1,0.4,0.1,0.8,0.2,1.3c0-0.2,0.1-0.5,0.1-0.7c0.2-1,0.7-1.7,1.3-2.5c0.5-0.6,1-1.1,1.7-1.4
				c0.7-0.3,1.5-0.4,2.3-0.4c0.8,0,1.6,0.1,2.4,0.5c0.8,0.4,1.5,1.1,2.2,1.8c0,0,0,0,0.1,0.1c0.1-0.1,0.1-0.2,0.2-0.2
				c0.6-0.7,1.3-1.3,2-1.6c-1.2-1.1-2.5-1.9-4-2.7c-0.1,0-0.1-0.1-0.2-0.1c-0.1,0.2-0.2,0.4-0.3,0.5c-0.2-0.3-0.5-0.7-0.7-1
				c-1.2-0.5-2.5-0.8-3.8-0.6c-2.1,0.3-3.5,2.1-4.3,3.9c0,0.1-0.1,0.2-0.1,0.3c0,0.1-0.1,0.3-0.1,0.5c0.1,0.1,0.2,0.2,0.3,0.3
				C18.8,9,19.1,9.7,19.3,10.5z"/>
			<path class="st2" d="M20.3,31.6c-0.2-0.3-0.5-0.7-0.7-1v2.7h1.9C21.1,32.7,20.7,32.2,20.3,31.6z"/>
			<path class="st2" d="M40.5,8.5c-1.2-1.8-2.5-3.7-3.8-5.4c-0.7-0.9-1.3-1.8-2.1-2.6c-0.1-0.1-0.2-0.3-0.3-0.4
				c-1.4,0.2-2.6,0.5-3.6,1.1c-0.1,0-0.2,0.1-0.2,0.1c0.7,0.3,1.3,0.6,1.8,1.1c2.1,1.6,3.7,3.9,5.3,6c2,2.7,4.1,5.3,6.2,7.9
				c1,1.3,2.1,2.5,3.2,3.7v-2.8C44.6,14.6,42.6,11.6,40.5,8.5z"/>
			<path class="st2" d="M18.9,2.6c-0.6,0.6-1.1,1.1-1.5,1.8c-0.5,0.8-0.9,1.6-1.2,2.5C16.1,7,16.1,7.2,16,7.4c0.3,0,0.5,0.1,0.8,0.2
				c0.4,0.1,0.8,0.3,1.1,0.5c0.1-0.2,0.1-0.4,0.2-0.5c0,0,0,0,0,0c0,0,0,0,0,0c0,0,0-0.1,0-0.1c0.5-1.4,1.3-2.6,2.4-3.6
				c0.9-0.8,2-1.4,3-1.9c0.2-0.1,0.4-0.2,0.6-0.3c-0.2-0.2-0.5-0.4-0.7-0.5c-0.5-0.3-1.1-0.6-1.7-0.8c-0.3,0.1-0.5,0.2-0.7,0.4
				C20.2,1.3,19.5,1.9,18.9,2.6z"/>
			<path class="st2" d="M15.4,2.8c-1.2,1.4-2.1,3-2.7,4.7c0.5-0.1,1-0.2,1.7-0.2c0.5,0,0.9,0,1.3,0.1c0.2-0.5,0.4-1,0.6-1.4
				C16.6,5,17,4.2,17.6,3.5c0.5-0.7,1.1-1.3,1.8-1.9c0.6-0.5,1.2-1,1.9-1.4c0,0,0,0-0.1,0C20.3,0.1,19.4,0,18.3,0
				C17.3,0.8,16.3,1.8,15.4,2.8z"/>
			<path class="st2" d="M44,3.1c-0.7-0.7-1.5-1.3-2.3-1.8c1.3,1.4,2.5,2.9,3.7,4.3c0.3,0.3,0.6,0.6,0.9,1c0,0,0,0,0,0
				C45.7,5.3,44.9,4.1,44,3.1z"/>
		</g>
		<path class="st3" d="M38.7,33.3V13.6c0-2-0.5-3.6-1.4-4.8C36.4,7.6,35.2,7,33.6,7c-1.6,0-2.9,0.7-3.9,2c-1,1.3-1.5,3-1.5,4.9v19.4
			h-8.6V13.8c0-1.3-0.1-2.4-0.3-3.2c-0.2-0.8-0.5-1.5-0.9-2c-0.4-0.5-1-0.8-1.6-1c-0.7-0.2-1.5-0.3-2.4-0.3c-3.5,0-5.2,2.1-5.2,6.3
			v19.7H0.7V0.8c0,0,1.7,1.1,4,1.1s4-1.1,4-1.1v4.7c1.1-2.2,2.4-3.6,4-4.4C14.2,0.4,16,0,18.2,0c1.1,0,2.1,0.1,2.9,0.3
			c0.9,0.2,1.6,0.5,2.3,0.9c0.7,0.4,1.3,1,1.9,1.6c0.6,0.7,1.2,1.5,1.8,2.4c0.9-1.8,2-3.1,3.5-3.9C32.2,0.4,33.9,0,36,0
			c1.6,0,3.1,0.3,4.5,0.8C41.8,1.4,43,2.1,44,3.1c1,1,1.7,2.1,2.3,3.5c0.5,1.3,0.8,2.7,0.8,4.2v22.5H38.7z"/>
	</g>
</g>
</svg>
