<svg width="150" height="48" viewBox="0 0 150 48" xmlns="http://www.w3.org/2000/svg" xmlns:xlink="http://www.w3.org/1999/xlink">
    <defs>
        <path id="onme577pra" d="M0 47.94h149.87V0H0z"/>
    </defs>
    <g fill="none" fill-rule="evenodd">
        <path d="M54.146 9.263v2.486h2.622v9.57c0 3.304 1.975 5.245 5.278 5.245 1.225 0 2.52-.273 3.473-.715V23.26c-.681.34-1.566.545-2.384.545-1.872 0-2.962-1.022-2.962-2.828V11.75h5.585V9.263H54.146z" fill="#d2ddbb"/>
        <path d="M60.411 4.904v-1.43h-3.405v5.79l.645-.312c1.759-.96 2.76-2.072 2.76-4.048M111.867 23.806c-3.167 0-5.006-2.249-5.006-6.063 0-3.814 1.839-6.062 5.006-6.062 3.167 0 5.005 2.384 5.005 6.062 0 3.678-1.838 6.063-5.005 6.063m4.767-.813v3.23h3.405V9.263h-3.405V12.5c-.987-1.757-2.303-2.64-3.45-3.08a7.003 7.003 0 0 0-1.614-.408c-.476-.063-.801-.061-.86-.083l.013.019c-.11-.004-.208-.025-.32-.025-4.427 0-7.05 3.27-7.05 8.82 0 5.553 2.623 8.822 7.05 8.822.114 0 .213-.02.324-.024l-.017.024c.062-.023.422-.02.944-.094a7.06 7.06 0 0 0 1.18-.273c.088-.029.178-.055.263-.087 1.166-.43 2.525-1.316 3.537-3.117M9.16 8.922c-.11 0-.204.022-.31.027a.75.75 0 0 0 .014-.02c-.197.072-3.33-.135-5.458 2.832V9.263H0v16.96h3.406v-9.229c0-3.337 1.668-5.313 4.46-5.313 2.486 0 3.95 1.533 3.95 4.19v10.352h3.405V15.768c0-4.291-2.247-6.846-6.061-6.846M28.264 23.806c-3.167 0-5.005-2.249-5.005-6.063 0-3.814 1.838-6.062 5.005-6.062s5.006 2.384 5.006 6.062c0 3.678-1.839 6.063-5.006 6.063zm4.768-11.308c-.986-1.755-2.302-2.638-3.447-3.079a6.963 6.963 0 0 0-1.616-.408c-.477-.063-.802-.061-.86-.083l.012.019c-.11-.004-.208-.025-.32-.025-4.428 0-7.049 3.27-7.049 8.82 0 5.553 2.621 8.822 7.049 8.822.114 0 .213-.02.324-.024a.262.262 0 0 0-.017.024c.062-.023.422-.02.944-.094l.243-.038c.28-.05.598-.126.937-.235.088-.029.178-.055.264-.087 1.165-.43 2.524-1.316 3.536-3.116v3.23h3.405V9.263h-3.405v3.234zM40.389 9.263v2.486h2.621v9.57c0 3.304 1.976 5.245 5.279 5.245 1.225 0 2.52-.273 3.473-.715V23.26c-.681.34-1.566.545-2.384.545-1.872 0-2.962-1.022-2.962-2.828V11.75H52V9.263H40.39z" fill="#d2ddbb"/>
        <path d="M46.654 4.904v-1.43h-3.405v5.79l.645-.312c1.758-.96 2.76-2.072 2.76-4.048M84.35 26.223V9.263h-3.404v9.23c0 3.337-1.601 5.313-4.291 5.313-2.383 0-3.78-1.533-3.78-4.19V9.263H69.47V19.72c0 4.29 2.18 6.845 5.891 6.845.087 0 .162-.018.247-.021l-.015.021c.193-.072 3.228.134 5.353-2.68v2.34h3.404z" fill="#d2ddbb"/>
        <mask id="u2otstdlwb" fill="#fff">
            <use xlink:href="#onme577pra"/>
        </mask>
        <path fill="#d2ddbb" mask="url(#u2otstdlwb)" d="M125.728 26.223h3.404V0h-3.404zM137.263 16.131c.438-2.887 2.073-4.552 4.605-4.552 2.5 0 4.103 1.665 4.537 4.552h-9.142zm12.607 1.612c0-5.551-2.962-8.82-8.002-8.82-5.074 0-8.036 3.269-8.036 8.82 0 5.552 2.962 8.821 8.036 8.821 4.461 0 7.423-2.35 8.002-6.335h-3.337c-.443 2.316-2.18 3.679-4.665 3.679-2.827 0-4.597-2.112-4.733-5.688h12.735v-.477zM98.917 8.924v-.001h-.025c-.097 0-.181.023-.276.027a8.83 8.83 0 0 0-.564.056c-.182.025-.364.05-.537.091-1.165.242-2.823.899-4.105 2.73V9.264h-3.406v16.96h3.406v-8.071c0-3.882 1.702-6.164 4.63-6.164.886 0 1.805.238 2.453.613l1.02-3.168c-.675-.303-1.651-.506-2.596-.51M99.317 35.569h-1.891c-.112 0-.168.055-.168.167v.377c0 .112.056.167.168.167h1.172c-.051.335-.196.598-.436.789-.24.19-.524.286-.855.286-.446 0-.809-.145-1.088-.436-.28-.29-.419-.662-.419-1.113 0-.452.14-.822.419-1.114.279-.29.642-.435 1.088-.435.447 0 .812.156 1.096.467.079.08.158.089.237.028l.363-.265c.093-.07.105-.147.035-.23-.42-.517-.996-.775-1.73-.775-.67 0-1.218.219-1.644.656-.425.437-.638.993-.638 1.668 0 .674.213 1.23.638 1.668.426.437.974.655 1.643.655.647 0 1.165-.205 1.556-.617.391-.412.598-.946.621-1.602v-.174c0-.112-.056-.167-.167-.167M102.387 34.292h1.249c.2 0 .366.066.498.198.134.133.2.301.2.506a.672.672 0 0 1-.698.698h-1.25v-1.402zm-.607 3.782h.44c.111 0 .167-.056.167-.168v-1.458h.858l.984 1.514a.224.224 0 0 0 .202.112h.523c.066 0 .11-.02.133-.06.023-.04.016-.087-.021-.143l-.956-1.472c.288-.08.527-.242.715-.489.189-.246.283-.55.283-.914 0-.447-.135-.801-.405-1.064a1.314 1.314 0 0 0-.949-.394h-1.974c-.112 0-.168.056-.168.167v4.201c0 .112.056.168.168.168zM107.871 33.538h-.44c-.111 0-.167.056-.167.167v2.778c0 .47.155.861.464 1.176.309.314.734.47 1.273.47.54 0 .965-.156 1.277-.47.312-.315.467-.706.467-1.176v-2.778c0-.111-.055-.167-.167-.167h-.446c-.112 0-.168.056-.168.167V36.4c0 .321-.088.564-.265.729-.177.165-.41.248-.698.248s-.52-.083-.697-.248c-.177-.165-.266-.408-.266-.729v-2.694c0-.111-.055-.167-.167-.167M113.718 35.694v-1.402h1.193a.68.68 0 0 1 .495.198.68.68 0 0 1 .203.506.661.661 0 0 1-.206.503.706.706 0 0 1-.506.195h-1.18zm2.26.36c.27-.263.405-.616.405-1.058 0-.446-.135-.801-.405-1.064a1.315 1.315 0 0 0-.949-.394h-1.918c-.112 0-.168.055-.168.167v4.201c0 .112.056.168.168.168h.44c.111 0 .167-.056.167-.168v-1.459h1.311c.363 0 .68-.13.95-.394zM121.668 36.919c-.272.29-.631.436-1.078.436-.446 0-.809-.145-1.088-.436-.28-.291-.419-.662-.419-1.114 0-.45.14-.821.419-1.112.28-.29.642-.436 1.088-.436.447 0 .806.145 1.078.436.272.29.408.661.408 1.112 0 .452-.136.823-.408 1.114m.558-2.784c-.42-.435-.966-.653-1.636-.653-.67 0-1.217.219-1.643.656-.425.437-.638.993-.638 1.667 0 .675.213 1.231.638 1.669.426.437.974.655 1.643.655.67 0 1.216-.217 1.636-.652.421-.435.632-.992.632-1.672 0-.678-.21-1.236-.632-1.67M92.732 40.56h-.44c-.11 0-.167.055-.167.167v4.201c0 .112.056.167.168.167h.44c.111 0 .167-.055.167-.167v-4.201c0-.112-.056-.168-.168-.168M98.544 40.56h-.439c-.112 0-.168.055-.168.167v3.022l-2.016-3.078a.225.225 0 0 0-.203-.111h-.453c-.112 0-.167.055-.167.167v4.201c0 .112.055.167.167.167h.44c.112 0 .167-.055.167-.167v-3.022l2.017 3.078a.224.224 0 0 0 .202.111h.453c.112 0 .168-.055.168-.167v-4.201c0-.112-.056-.167-.168-.167M105.208 40.56h-.496c-.093 0-.158.039-.195.118l-1.374 2.735-1.368-2.735a.213.213 0 0 0-.203-.118h-.488c-.112 0-.167.055-.167.167v4.201c0 .112.055.167.167.167h.44c.111 0 .167-.055.167-.167v-2.82l1.123 2.331c.038.084.105.126.203.126h.258c.097 0 .165-.042.202-.126l1.117-2.324v2.813c0 .112.055.167.167.167h.447c.111 0 .167-.055.167-.167v-4.201c0-.112-.056-.167-.167-.167M110.863 43.94c-.273.291-.632.436-1.078.436-.447 0-.81-.145-1.089-.436-.279-.29-.418-.662-.418-1.113 0-.451.14-.822.418-1.113.28-.29.642-.436 1.089-.436.446 0 .805.145 1.078.436.272.291.408.662.408 1.113 0 .451-.136.823-.408 1.113m-1.078-3.437c-.67 0-1.218.22-1.643.657-.426.437-.639.993-.639 1.667 0 .675.213 1.23.639 1.668.425.437.973.656 1.643.656s1.215-.217 1.636-.652c.42-.435.632-.992.632-1.672 0-.679-.211-1.236-.632-1.67-.42-.436-.967-.654-1.636-.654M116.737 44.198a.632.632 0 0 1-.477.185h-1.34v-1.29h1.34a.626.626 0 0 1 .655.642c0 .186-.059.34-.178.463zm-1.817-2.927h1.2a.65.65 0 0 1 .457.157c.114.105.17.248.17.43a.555.555 0 0 1-.17.425.64.64 0 0 1-.457.16h-1.2v-1.172zm2.17 1.473c.307-.2.46-.51.46-.928 0-.387-.125-.693-.377-.918a1.338 1.338 0 0 0-.927-.339h-1.933c-.112 0-.168.056-.168.168v4.201c0 .112.056.167.168.167h2.065c.363 0 .677-.12.942-.36.265-.239.398-.551.398-.938 0-.488-.21-.84-.628-1.053zM120.362 40.56h-.44c-.111 0-.167.055-.167.167v4.201c0 .112.056.167.167.167h.44c.112 0 .167-.055.167-.167v-4.201c0-.112-.055-.168-.167-.168M125.567 44.383h-2.065v-3.656c0-.112-.056-.168-.167-.168h-.44c-.112 0-.168.056-.168.168v4.2c0 .113.056.168.168.168h2.672c.112 0 .168-.055.168-.167v-.377c0-.112-.056-.168-.168-.168M128.407 40.56h-.44c-.112 0-.167.055-.167.167v4.201c0 .112.055.167.167.167h.44c.112 0 .167-.055.167-.167v-4.201c0-.112-.055-.168-.167-.168M132.049 43.511l.691-1.73.69 1.73h-1.381zm1.04-2.819a.198.198 0 0 0-.196-.132h-.314c-.093 0-.158.044-.195.132l-1.71 4.208c-.023.056-.022.102.004.14.025.037.069.055.129.055h.474c.088 0 .152-.044.189-.132l.3-.74h1.94l.3.74c.037.088.1.132.188.132h.475c.06 0 .103-.018.128-.055.026-.038.027-.084.004-.14l-1.716-4.208zM139.288 42.52a.682.682 0 0 1-.499.195h-1.249v-1.402h1.25a.684.684 0 0 1 .698.704.672.672 0 0 1-.2.503m.69.412c.19-.247.283-.551.283-.914 0-.447-.135-.802-.404-1.064a1.313 1.313 0 0 0-.95-.394h-1.974c-.112 0-.167.055-.167.167v4.2c0 .113.055.168.167.168h.44c.112 0 .167-.055.167-.167v-1.459h.858l.984 1.514a.224.224 0 0 0 .203.112h.523c.065 0 .11-.02.133-.059.023-.04.015-.087-.022-.143l-.955-1.473c.288-.079.526-.242.715-.488M143.025 40.56h-.44c-.112 0-.167.055-.167.167v4.201c0 .112.055.167.167.167h.44c.112 0 .167-.055.167-.167v-4.201c0-.112-.055-.168-.167-.168M148.68 43.94c-.272.291-.632.436-1.078.436-.447 0-.81-.145-1.089-.436-.279-.29-.418-.662-.418-1.113 0-.451.14-.822.418-1.113.28-.29.642-.436 1.09-.436.445 0 .805.145 1.077.436.272.291.408.662.408 1.113 0 .451-.136.823-.408 1.113m-1.078-3.437c-.67 0-1.218.22-1.643.657-.426.437-.638.993-.638 1.667 0 .675.212 1.23.638 1.668.425.437.973.656 1.643.656s1.215-.217 1.636-.652c.421-.435.632-.992.632-1.672 0-.679-.211-1.236-.632-1.67-.42-.436-.966-.654-1.636-.654M83.58 47.94h.67l7.02-16.597h-.702z"/>
    </g>
</svg>
