<?xml version="1.0" encoding="UTF-8"?><svg xmlns="http://www.w3.org/2000/svg" viewBox="0 0 208.51 64.82"><defs><style>.d{fill:#e7a132;}.e{fill:#e48d32;}.f{fill:#e08031;}.g{fill:#dc7330;}</style></defs><g id="a"/><g id="b"><g id="c"><g><g><path d="M74.9,10.38h15.01c8.54,0,15.86,2.93,15.86,12.81s-7.32,13.54-15.86,13.54h-4.51v13.3h-10.49V10.38Zm14.28,18.06c4.15,0,6.35-1.83,6.35-5.25s-2.2-4.52-6.35-4.52h-3.78v9.76h3.78Zm-1.16,5.55l7.08-6.95,12.87,23h-11.71l-8.24-16.05Z"/><path d="M111.87,30.88V10.38h10.49v21.72c0,7.08,1.83,9.64,5.98,9.64s6.1-2.56,6.1-9.64V10.38h10.13V30.88c0,13.54-5.12,19.89-16.23,19.89s-16.47-6.35-16.47-19.89Z"/><path d="M151.89,10.38h11.23l5.98,16.23c.73,2.2,1.34,4.64,2.07,6.95h.24c.73-2.32,1.34-4.76,2.07-6.95l5.73-16.23h11.23V50.03h-9.52v-11.71c0-4.03,.85-10.19,1.34-14.15h-.24l-3.29,9.52-4.88,13.12h-5.61l-4.88-13.12-3.17-9.52h-.24c.49,3.97,1.34,10.13,1.34,14.15v11.71h-9.4V10.38Z"/><path d="M198.02,10.38h10.49V50.03h-10.49V10.38Z"/></g><g><path class="e" d="M81.68,56.69c.2,0,.43,.03,.69,.09,.04-.76,.48-1.14,1.33-1.14,.36,0,.66,.09,.9,.28s.36,.42,.36,.71c0,.19-.06,.35-.18,.48-.12,.13-.26,.2-.42,.2-.13,0-.23-.04-.33-.13-.09-.09-.14-.19-.14-.3,0-.12,.09-.25,.26-.39-.12-.15-.28-.23-.48-.23-.41,0-.62,.26-.63,.77,.59,.4,.89,.93,.89,1.6,0,.54-.2,.98-.61,1.34-.41,.36-.91,.54-1.52,.54-.43,0-.87-.1-1.33-.3-.13-.05-.23-.08-.32-.08-.11,0-.21,.05-.29,.15-.09,.1-.13,.21-.13,.34,0,.4,.41,.61,1.23,.61h.42c.74,0,1.34,.07,1.8,.21,.43,.13,.77,.34,1.02,.62,.25,.28,.37,.59,.37,.94,0,.56-.26,1.01-.79,1.34s-1.23,.49-2.13,.49-1.59-.15-2.1-.47c-.51-.31-.76-.74-.76-1.28,0-.63,.35-1.08,1.06-1.34-.64-.25-.96-.62-.96-1.12,0-.54,.32-.92,.96-1.12-.2-.27-.3-.59-.3-.96,0-.53,.2-.97,.61-1.32,.41-.35,.92-.52,1.53-.52Zm.05,5.29c-.62,0-1.11,.09-1.47,.28-.36,.19-.54,.44-.54,.76s.17,.57,.52,.75c.35,.18,.82,.27,1.41,.27,.62,0,1.11-.09,1.47-.28,.36-.19,.54-.44,.54-.75,0-.33-.17-.58-.51-.76-.34-.18-.82-.27-1.43-.27Zm-.01-4.52c-.34,0-.63,.1-.87,.3-.24,.2-.37,.46-.4,.76v.07c0,.34,.12,.62,.35,.83,.23,.21,.54,.31,.91,.31s.7-.11,.95-.31c.24-.21,.37-.48,.37-.8s-.12-.61-.37-.83c-.25-.22-.56-.33-.93-.33Z"/><path class="e" d="M88.73,57.23v.32c.4-.57,.94-.85,1.62-.85,.54,0,.98,.15,1.32,.46,.34,.31,.51,.7,.51,1.18,0,.34-.09,.62-.26,.83-.17,.21-.4,.32-.68,.32-.18,0-.33-.05-.45-.16-.13-.11-.19-.24-.19-.4,0-.12,.05-.24,.14-.33,.09-.1,.2-.15,.33-.15,.02,0,.07,.01,.15,.04,.05-.09,.07-.18,.07-.26,0-.22-.1-.42-.3-.57-.2-.16-.44-.23-.74-.23-.61,0-1.01,.27-1.21,.82-.12,.33-.19,.84-.19,1.52v.77c0,.52,0,.81,.01,.87,.04,.44,.16,.66,.36,.66,.1,0,.21-.01,.31-.04,.09-.02,.16-.03,.22-.03,.25,0,.37,.12,.37,.37,0,.27-.16,.4-.48,.4h-.05c-.12,0-.29-.01-.53-.04s-.41-.04-.53-.04c-.31,0-.55,0-.73,.02l-.65,.06c-.32,0-.48-.14-.48-.41,0-.24,.15-.36,.45-.36,.08,0,.14,0,.18,.01l.18,.04c.08,.02,.13,.02,.16,.02,.2,0,.3-.18,.32-.54v-.59l-.04-2.65c-.02-.46-.14-.69-.35-.69-.06,0-.15,.01-.26,.04s-.19,.04-.26,.04c-.26,0-.38-.12-.38-.37,0-.27,.17-.41,.5-.41,.08,0,.19,0,.35,.03,.15,.02,.27,.03,.35,.03,.06,0,.16,0,.3-.03,.06-.02,.14-.03,.22-.03,.2,0,.3,.11,.3,.33Z"/><path class="e" d="M99.1,62.43v-.36c-.41,.57-1.02,.85-1.83,.85-.92,0-1.55-.28-1.91-.85-.16-.25-.24-.54-.26-.87,0-.16-.01-.51-.01-1.03v-.97c0-1.06-.11-1.6-.34-1.6-.05,0-.12,0-.22,.02-.1,.01-.18,.02-.24,.02-.27,0-.41-.13-.41-.38s.17-.37,.5-.37c.08,0,.19,0,.34,.03,.15,.02,.27,.03,.34,.03,.07,0,.19-.01,.36-.04,.12-.02,.18-.02,.2-.02,.24,0,.36,.15,.36,.44v1l-.03,.86v.76c0,.68,.05,1.16,.16,1.46,.18,.49,.61,.73,1.28,.73,.33,0,.63-.08,.89-.23s.44-.35,.54-.6c.12-.3,.19-.88,.19-1.73v-1.4c-.04-.37-.14-.56-.3-.56h-.35c-.27,0-.41-.12-.41-.35,0-.26,.15-.4,.45-.4,.07,0,.18,0,.32,.02s.25,.02,.32,.02c.06,0,.16,0,.28-.02s.22-.02,.28-.02c.23,0,.35,.12,.35,.37,0,.11,0,.19-.02,.26-.04,.3-.06,.73-.06,1.31v1.8c0,.48,0,.74,.01,.79,.04,.41,.15,.62,.33,.62,.05,0,.13,0,.23-.03,.1-.02,.18-.03,.23-.03,.26,0,.4,.13,.4,.39s-.16,.4-.49,.4c-.07,0-.17,0-.3-.02-.19-.02-.31-.04-.36-.04-.02,0-.11,0-.25,.02-.09,.02-.18,.04-.24,.04-.22,0-.33-.11-.33-.34Z"/><path class="e" d="M104.73,57.23v.37c.44-.61,1.03-.91,1.78-.91s1.39,.27,1.85,.8c.46,.54,.69,1.26,.69,2.18,0,.99-.24,1.77-.73,2.36-.49,.59-1.14,.88-1.95,.88-.68,0-1.22-.24-1.64-.71v.97c0,.3,0,.49,.02,.57,.05,.24,.16,.36,.34,.36,.05,0,.14-.01,.24-.04,.11-.02,.19-.04,.25-.04,.25,0,.37,.13,.37,.39s-.16,.38-.49,.38c-.12,0-.29-.02-.52-.05-.17-.02-.43-.04-.77-.04-.19,0-.34,0-.46,.02-.31,.04-.51,.06-.62,.06-.13,0-.24-.04-.34-.12-.09-.08-.14-.17-.14-.28,0-.25,.13-.37,.39-.37,.05,0,.12,.01,.22,.03,.13,.03,.23,.04,.29,.04,.15,0,.24-.08,.27-.23,.03-.15,.06-.57,.06-1.27v-4.5c0-.36-.11-.54-.3-.54-.05,0-.14,.01-.25,.04-.11,.03-.2,.04-.26,.04-.28,0-.43-.13-.43-.39s.17-.37,.51-.37c.09,0,.18,0,.28,.01,.19,.02,.34,.02,.43,.02,.07,0,.17,0,.3-.02,.13-.01,.23-.02,.29-.02,.19,0,.29,.11,.29,.33Zm.18,1.42c-.07,.3-.11,.67-.12,1.11,0,.03,0,.09-.01,.17v.16c0,.52,.04,.9,.13,1.14,.08,.24,.25,.45,.51,.63,.25,.19,.56,.28,.94,.28,.56,0,.99-.2,1.3-.61,.31-.41,.46-.99,.46-1.74,0-1.55-.55-2.33-1.65-2.33-.37,0-.7,.11-1,.34-.29,.23-.48,.51-.55,.85Z"/><path class="e" d="M114.02,62.92c-.82,0-1.47-.28-1.96-.84-.49-.56-.73-1.32-.73-2.27s.25-1.7,.74-2.27c.49-.56,1.16-.84,1.99-.84s1.51,.28,2,.83c.49,.55,.73,1.3,.73,2.25s-.25,1.71-.76,2.28c-.51,.58-1.18,.86-2.02,.86Zm.06-5.45c-.54,0-.97,.19-1.28,.57s-.48,.92-.51,1.62v.15c0,.73,.15,1.3,.46,1.72,.31,.41,.74,.62,1.29,.62s1.01-.21,1.33-.62c.32-.42,.48-.99,.48-1.73,0-1.55-.59-2.33-1.77-2.33Z"/><path class="e" d="M125.3,59.34v1.51c0,.39,0,.62,.01,.69,.04,.35,.14,.53,.31,.53,.04,0,.14-.02,.29-.06,.04-.02,.1-.02,.18-.02,.3,0,.44,.13,.44,.39,0,.11-.05,.2-.15,.28-.1,.08-.22,.12-.37,.12-.13,0-.31-.02-.57-.05-.25-.04-.44-.05-.57-.05-.2,0-.43,.02-.68,.05-.3,.04-.51,.06-.61,.06-.31,0-.47-.13-.47-.4s.13-.39,.4-.39c.06,0,.15,.01,.28,.04,.12,.02,.21,.04,.28,.04,.19,0,.3-.25,.34-.75v-2.98c-.04-.49-.16-.73-.35-.73-.06,0-.15,.01-.26,.04-.11,.03-.2,.04-.25,.04-.28,0-.42-.12-.42-.37,0-.26,.17-.4,.51-.4,.15,0,.25,0,.32,.01,.25,.03,.41,.05,.48,.05,.06,0,.16,0,.29-.03,.13-.02,.22-.03,.29-.03,.22,0,.34,.15,.34,.45,0,.03,0,.08,0,.14s0,.11,0,.14c0,.06-.01,.3-.02,.72,0,.32,0,.65,0,.98Zm-.61-3.05c-.18,0-.33-.06-.46-.19-.13-.13-.19-.28-.19-.46s.06-.33,.19-.45c.13-.12,.28-.19,.46-.19s.33,.06,.46,.19c.13,.12,.19,.28,.19,.45s-.06,.33-.19,.46c-.13,.13-.28,.19-.46,.19Z"/><path class="e" d="M130.2,57.25v.33c.47-.59,1.09-.89,1.86-.89,.42,0,.82,.11,1.19,.32s.63,.48,.76,.8c.11,.26,.16,.61,.16,1.04v2.21c0,.33,0,.53,.01,.59,.04,.26,.14,.4,.31,.4,.07,0,.16,0,.27-.03,.11-.02,.19-.03,.24-.03,.1,0,.19,.04,.26,.1,.07,.07,.11,.16,.11,.26,0,.12-.05,.21-.14,.29-.09,.08-.21,.12-.34,.12-.11,0-.29-.02-.54-.05-.25-.03-.48-.05-.7-.05-.2,0-.37,0-.5,.02-.39,.05-.59,.07-.62,.07-.31,0-.47-.14-.47-.41,0-.24,.13-.36,.4-.36,.06,0,.13,0,.21,.02,.15,.03,.25,.05,.29,.05,.19,0,.29-.21,.31-.64v-2.19c0-.41-.02-.7-.06-.85-.07-.3-.22-.52-.45-.69-.25-.18-.55-.27-.87-.27-.62,0-1.06,.22-1.34,.66-.19,.3-.28,.82-.28,1.55v1.55c0,.34,.02,.58,.07,.7,.05,.12,.13,.19,.26,.19,.06,0,.15-.01,.26-.04s.2-.04,.27-.04c.24,0,.36,.13,.36,.39s-.15,.38-.47,.38c-.06,0-.26-.02-.61-.07-.17-.02-.36-.04-.57-.04-.16,0-.38,.02-.65,.05-.34,.04-.54,.06-.58,.06-.33,0-.49-.13-.49-.4,0-.25,.13-.37,.38-.37,.04,0,.11,.01,.22,.04,.11,.02,.21,.04,.31,.04,.24,0,.36-.23,.37-.68v-3.11c-.02-.26-.05-.44-.1-.54s-.14-.15-.27-.15c-.06,0-.14,0-.24,.03s-.19,.03-.24,.03c-.28,0-.43-.12-.43-.37s.18-.38,.52-.38c.05,0,.09,0,.12,.01l.43,.05c.12,0,.23,0,.33-.03,.2-.02,.31-.03,.32-.03,.22,0,.34,.12,.34,.36Z"/><path class="e" d="M138.99,57.24v.34c.28-.33,.54-.56,.79-.69,.25-.13,.56-.19,.93-.19,.76,0,1.32,.3,1.68,.89,.26-.33,.53-.56,.8-.69,.27-.13,.62-.2,1.05-.2s.84,.09,1.19,.28c.39,.21,.66,.51,.8,.89,.1,.26,.15,.66,.15,1.21v2.01c0,.32,0,.51,.01,.58,.04,.28,.14,.42,.3,.42,.05,0,.13-.01,.24-.04s.19-.04,.24-.04c.27,0,.4,.12,.4,.35,0,.27-.15,.41-.47,.41-.12,0-.29-.01-.53-.04s-.42-.04-.54-.04c-.13,0-.32,.01-.58,.04s-.44,.04-.58,.04c-.33,0-.49-.14-.49-.41,0-.23,.12-.35,.37-.35,.03,0,.11,0,.23,.02,.05,.01,.11,.02,.19,.02,.13,0,.22-.07,.25-.2,.04-.13,.06-.46,.06-.99v-1.48c0-.54-.04-.93-.12-1.17-.08-.25-.23-.44-.46-.58s-.48-.21-.77-.21c-.55,0-.93,.19-1.15,.57-.17,.3-.26,.83-.26,1.58v.83c0,.73,.02,1.19,.05,1.37,.04,.18,.13,.27,.27,.27,.05,0,.11,0,.2-.02,.09-.02,.16-.02,.2-.02,.11,0,.2,.04,.27,.11,.07,.07,.11,.16,.11,.27,0,.25-.18,.38-.55,.38-.12,0-.29-.02-.52-.05s-.4-.05-.52-.05c-.16,0-.34,.02-.54,.05s-.37,.05-.51,.05c-.32,0-.48-.13-.48-.4,0-.24,.12-.36,.35-.36,.09,0,.15,.01,.2,.03,.11,.03,.19,.05,.25,.05,.19,0,.28-.2,.29-.6l.04-.55v-1.7c0-.68-.09-1.15-.27-1.42-.18-.27-.51-.4-.97-.4-.51,0-.91,.19-1.18,.56-.23,.3-.34,.84-.34,1.59v1.56c0,.31,0,.5,.01,.55,.03,.27,.12,.4,.26,.4,.04,0,.12-.02,.24-.06,.02,0,.04,0,.07-.02h.08c.3,0,.46,.13,.46,.38s-.18,.37-.52,.37c-.13,0-.3-.01-.49-.04-.26-.03-.49-.05-.68-.05-.09,0-.26,.01-.51,.04-.33,.03-.54,.05-.61,.05-.31,0-.47-.13-.47-.4,0-.24,.15-.36,.45-.36h.07s.06,.01,.07,.01l.3,.06s.02,.01,.05,.01c.21,0,.33-.19,.34-.57v-2.45c0-.66-.02-1.07-.05-1.24-.04-.16-.13-.24-.29-.24-.03,0-.14,.02-.33,.06-.08,.02-.14,.02-.19,.02-.29,0-.43-.12-.43-.37,0-.26,.16-.4,.48-.4,.08,0,.2,0,.35,.02s.28,.02,.38,.02h.21l.28-.05h.03c.19,0,.28,.11,.28,.34Z"/><path class="e" d="M152.14,62.92c-.82,0-1.47-.28-1.96-.84-.49-.56-.73-1.32-.73-2.27s.25-1.7,.74-2.27c.49-.56,1.16-.84,1.99-.84s1.51,.28,2,.83c.49,.55,.73,1.3,.73,2.25s-.25,1.71-.76,2.28c-.51,.58-1.18,.86-2.02,.86Zm.06-5.45c-.54,0-.97,.19-1.28,.57-.31,.38-.48,.92-.51,1.62v.15c0,.73,.15,1.3,.46,1.72,.31,.41,.74,.62,1.29,.62s1.01-.21,1.33-.62c.32-.42,.48-.99,.48-1.73,0-1.55-.59-2.33-1.77-2.33Z"/><path class="e" d="M158.74,55.29c-.07,.64-.11,1.4-.12,2.29,.25-.33,.5-.56,.76-.69,.26-.13,.58-.2,.97-.2,.78,0,1.4,.27,1.86,.82,.46,.54,.69,1.27,.69,2.17,0,.99-.24,1.77-.73,2.36-.48,.59-1.14,.88-1.96,.88s-1.38-.3-1.74-.9c.03,.23,.05,.35,.05,.37,0,.28-.14,.42-.41,.42s-.41-.19-.41-.58v-.82l.06-.9v-4.29c0-.29-.04-.48-.09-.58-.05-.1-.14-.15-.26-.15-.02,0-.12,.01-.3,.05-.08,.02-.16,.02-.22,.02-.26,0-.4-.12-.4-.37s.15-.38,.47-.38c.09,0,.17,0,.23,.01l.28,.04c.12,.02,.22,.02,.3,.02,.09,0,.21-.01,.36-.04,.15-.02,.27-.04,.35-.04,.17,0,.26,.11,.26,.32v.16Zm-.03,3.37c-.06,.25-.08,.6-.08,1.05,0,.77,.06,1.3,.19,1.58,.24,.57,.7,.85,1.38,.85,.54,0,.97-.21,1.29-.64,.32-.42,.48-.99,.48-1.71s-.15-1.3-.45-1.72c-.3-.41-.71-.62-1.24-.62-.37,0-.7,.11-1,.34-.3,.23-.48,.51-.56,.86Z"/><path class="e" d="M167.08,59.34v1.51c0,.39,0,.62,.01,.69,.04,.35,.14,.53,.31,.53,.04,0,.14-.02,.29-.06,.04-.02,.1-.02,.18-.02,.3,0,.44,.13,.44,.39,0,.11-.05,.2-.15,.28-.1,.08-.22,.12-.37,.12-.13,0-.31-.02-.57-.05-.25-.04-.44-.05-.57-.05-.2,0-.43,.02-.68,.05-.3,.04-.51,.06-.61,.06-.31,0-.47-.13-.47-.4s.13-.39,.4-.39c.06,0,.15,.01,.28,.04,.12,.02,.21,.04,.28,.04,.19,0,.3-.25,.34-.75v-2.98c-.04-.49-.16-.73-.35-.73-.06,0-.15,.01-.26,.04-.11,.03-.2,.04-.25,.04-.28,0-.42-.12-.42-.37,0-.26,.17-.4,.51-.4,.15,0,.25,0,.32,.01,.25,.03,.41,.05,.48,.05,.06,0,.16,0,.29-.03,.13-.02,.22-.03,.29-.03,.22,0,.34,.15,.34,.45,0,.03,0,.08,0,.14s0,.11,0,.14c0,.06-.01,.3-.02,.72,0,.32,0,.65,0,.98Zm-.61-3.05c-.18,0-.33-.06-.46-.19-.13-.13-.19-.28-.19-.46s.06-.33,.19-.45c.13-.12,.28-.19,.46-.19s.33,.06,.46,.19c.13,.12,.19,.28,.19,.45s-.06,.33-.19,.46c-.13,.13-.28,.19-.46,.19Z"/><path class="e" d="M172.03,57.85v3.62c0,.4,.11,.59,.32,.59,.05,0,.15-.02,.29-.06,.09-.02,.16-.02,.19-.02,.26,0,.39,.13,.39,.4s-.16,.38-.48,.38c-.12,0-.32-.02-.59-.05-.27-.03-.48-.05-.63-.05-.12,0-.31,.02-.56,.05s-.43,.05-.55,.05h-.06c-.33,0-.49-.14-.49-.42,0-.24,.13-.36,.4-.36h.08s.08,.02,.11,.02c.2,.04,.31,.07,.34,.07,.14,0,.23-.06,.26-.18,.04-.12,.06-.44,.06-.94v-4.71c0-.23,0-.39-.02-.47-.06-.18-.16-.27-.33-.27-.02,0-.12,.01-.3,.05-.09,.02-.16,.02-.21,.02-.26,0-.4-.12-.4-.37s.16-.38,.47-.38c.08,0,.16,0,.22,.01l.28,.04c.12,.02,.23,.02,.32,.02,.08,0,.19-.01,.35-.04s.27-.04,.35-.04c.18,0,.27,.11,.27,.34,0,.08,0,.14-.01,.17-.05,.6-.08,1.44-.08,2.54Z"/><path class="e" d="M177.09,59.34v1.51c0,.39,0,.62,.01,.69,.04,.35,.14,.53,.31,.53,.04,0,.14-.02,.29-.06,.04-.02,.1-.02,.18-.02,.3,0,.44,.13,.44,.39,0,.11-.05,.2-.15,.28-.1,.08-.22,.12-.37,.12-.13,0-.31-.02-.57-.05-.25-.04-.44-.05-.57-.05-.2,0-.43,.02-.68,.05-.3,.04-.51,.06-.61,.06-.31,0-.47-.13-.47-.4s.13-.39,.4-.39c.06,0,.15,.01,.28,.04,.12,.02,.21,.04,.28,.04,.19,0,.3-.25,.34-.75v-2.98c-.04-.49-.16-.73-.35-.73-.06,0-.15,.01-.26,.04-.11,.03-.2,.04-.25,.04-.28,0-.42-.12-.42-.37,0-.26,.17-.4,.51-.4,.15,0,.25,0,.32,.01,.25,.03,.41,.05,.48,.05,.06,0,.16,0,.29-.03,.13-.02,.22-.03,.29-.03,.22,0,.34,.15,.34,.45,0,.03,0,.08,0,.14s0,.11,0,.14c0,.06-.01,.3-.02,.72,0,.32,0,.65,0,.98Zm-.61-3.05c-.18,0-.33-.06-.46-.19-.13-.13-.19-.28-.19-.46s.06-.33,.19-.45c.13-.12,.28-.19,.46-.19s.33,.06,.46,.19c.13,.12,.19,.28,.19,.45s-.06,.33-.19,.46c-.13,.13-.28,.19-.46,.19Z"/><path class="e" d="M185.22,62.87c-.64,0-1.03-.28-1.18-.83-.4,.58-1.02,.87-1.86,.87-.63,0-1.13-.15-1.51-.47-.38-.31-.57-.73-.57-1.25,0-.64,.28-1.12,.83-1.42,.21-.12,.39-.19,.54-.23,.15-.04,.46-.08,.91-.13,.65-.07,1.08-.17,1.28-.29s.3-.35,.3-.69-.11-.57-.33-.75c-.22-.18-.53-.27-.93-.27-.35,0-.68,.1-.98,.29-.12,.08-.18,.16-.18,.24,0,.03,.04,.07,.11,.12,.11,.08,.16,.21,.16,.4,0,.16-.06,.28-.17,.38-.11,.1-.25,.15-.43,.15-.2,0-.37-.07-.51-.21-.14-.14-.2-.31-.2-.51,0-.44,.22-.81,.65-1.12,.43-.31,.95-.47,1.57-.47,1.41,0,2.12,.68,2.12,2.03v2.35c0,.37,0,.59,.02,.66,.05,.27,.18,.41,.4,.41,.27,0,.41-.25,.41-.74v-.57c0-.25,.12-.37,.36-.37,.25,0,.38,.19,.38,.56v.72c-.02,.75-.41,1.12-1.19,1.12Zm-1.29-2.32v-.83c-.17,.15-.35,.26-.54,.33s-.53,.12-1.02,.16c-.88,.09-1.32,.41-1.32,.98,0,.3,.11,.53,.32,.7,.21,.17,.5,.26,.87,.26,.52,0,.93-.14,1.23-.43,.3-.28,.45-.67,.46-1.17Z"/><path class="e" d="M189.94,57.23v.32c.4-.57,.94-.85,1.62-.85,.54,0,.98,.15,1.32,.46,.34,.31,.51,.7,.51,1.18,0,.34-.09,.62-.26,.83-.17,.21-.4,.32-.68,.32-.18,0-.33-.05-.45-.16-.13-.11-.19-.24-.19-.4,0-.12,.05-.24,.14-.33,.09-.1,.2-.15,.33-.15,.02,0,.07,.01,.15,.04,.05-.09,.07-.18,.07-.26,0-.22-.1-.42-.3-.57-.2-.16-.44-.23-.74-.23-.61,0-1.01,.27-1.21,.82-.12,.33-.19,.84-.19,1.52v.77c0,.52,0,.81,.01,.87,.04,.44,.16,.66,.36,.66,.1,0,.21-.01,.31-.04,.09-.02,.16-.03,.22-.03,.25,0,.37,.12,.37,.37,0,.27-.16,.4-.48,.4h-.05c-.12,0-.29-.01-.53-.04s-.41-.04-.53-.04c-.31,0-.55,0-.73,.02l-.65,.06c-.32,0-.48-.14-.48-.41,0-.24,.15-.36,.45-.36,.08,0,.14,0,.18,.01l.18,.04c.08,.02,.13,.02,.16,.02,.2,0,.3-.18,.32-.54v-.59l-.04-2.65c-.02-.46-.14-.69-.35-.69-.06,0-.15,.01-.26,.04s-.19,.04-.26,.04c-.26,0-.38-.12-.38-.37,0-.27,.17-.41,.5-.41,.08,0,.19,0,.35,.03,.15,.02,.27,.03,.35,.03,.06,0,.16,0,.3-.03,.06-.02,.14-.03,.22-.03,.2,0,.3,.11,.3,.33Z"/><path class="e" d="M197.19,59.34v1.51c0,.39,0,.62,.01,.69,.04,.35,.14,.53,.31,.53,.04,0,.14-.02,.29-.06,.04-.02,.1-.02,.18-.02,.3,0,.44,.13,.44,.39,0,.11-.05,.2-.15,.28-.1,.08-.22,.12-.37,.12-.13,0-.31-.02-.57-.05-.25-.04-.44-.05-.57-.05-.2,0-.43,.02-.68,.05-.3,.04-.51,.06-.61,.06-.31,0-.47-.13-.47-.4s.13-.39,.4-.39c.06,0,.15,.01,.28,.04,.12,.02,.21,.04,.28,.04,.19,0,.3-.25,.34-.75v-2.98c-.04-.49-.16-.73-.35-.73-.06,0-.15,.01-.26,.04-.11,.03-.2,.04-.25,.04-.28,0-.42-.12-.42-.37,0-.26,.17-.4,.51-.4,.15,0,.25,0,.32,.01,.25,.03,.41,.05,.48,.05,.06,0,.16,0,.29-.03,.13-.02,.22-.03,.29-.03,.22,0,.34,.15,.34,.45,0,.03,0,.08,0,.14s0,.11,0,.14c0,.06-.01,.3-.02,.72,0,.32,0,.65,0,.98Zm-.61-3.05c-.18,0-.33-.06-.46-.19-.13-.13-.19-.28-.19-.46s.06-.33,.19-.45c.13-.12,.28-.19,.46-.19s.33,.06,.46,.19c.13,.12,.19,.28,.19,.45s-.06,.33-.19,.46c-.13,.13-.28,.19-.46,.19Z"/><path class="e" d="M202.99,62.92c-.82,0-1.47-.28-1.96-.84-.49-.56-.73-1.32-.73-2.27s.25-1.7,.74-2.27c.49-.56,1.16-.84,1.99-.84s1.51,.28,2,.83c.49,.55,.73,1.3,.73,2.25s-.25,1.71-.76,2.28c-.51,.58-1.18,.86-2.02,.86Zm.06-5.45c-.54,0-.97,.19-1.28,.57s-.48,.92-.51,1.62v.15c0,.73,.15,1.3,.46,1.72,.31,.41,.74,.62,1.29,.62s1.01-.21,1.33-.62c.32-.42,.48-.99,.48-1.73,0-1.55-.59-2.33-1.77-2.33Z"/></g><ellipse class="g" cx="26.03" cy="54.31" rx="26.03" ry=".94"/><path class="d" d="M63.34,19.31l-3.16-4.97c-.08-.12-.17-.22-.28-.31L41.95,.25c-.43-.33-1.04-.33-1.47,0l-7.36,5.61,30.22,13.46Z"/><path class="g" d="M35.67,34.55L7.06,28.39l16.63,24.94c.22,.34,.6,.54,1.01,.54h24.49c.47,0,.9-.28,1.1-.71l2.95-6.43-17.57-12.18Z"/><polygon class="e" points="54.44 44.11 64.23 22.75 31.96 8.48 37.46 32.34 54.44 44.11"/><polygon class="f" points="34.3 31.37 29.11 8.91 7.09 25.68 34.3 31.37"/></g></g></g></svg>