<?xml version="1.0" encoding="utf-8"?>
<!-- Generator: Adobe Illustrator 25.4.1, SVG Export Plug-In . SVG Version: 6.00 Build 0)  -->
<svg version="1.1" id="Capa_1" xmlns="http://www.w3.org/2000/svg" xmlns:xlink="http://www.w3.org/1999/xlink" x="0px" y="0px"
	 viewBox="0 0 383.4 379.4" style="enable-background:new 0 0 383.4 379.4;" xml:space="preserve">
<style type="text/css">
	.st0{clip-path:url(#SVGID_00000141415246135556164960000000203169134602802080_);}
	.st1{fill:none;stroke:#616161;stroke-miterlimit:10;}
</style>
<g id="Capa_2_00000057139923669688878900000010617421877707193532_">
	<g id="Capa_1-2">
		<g>
			<defs>
				<rect id="SVGID_1_" width="408" height="408"/>
			</defs>
			<clipPath id="SVGID_00000175323227007432404480000013508383690077704066_">
				<use xlink:href="#SVGID_1_"  style="overflow:visible;"/>
			</clipPath>
			<g style="clip-path:url(#SVGID_00000175323227007432404480000013508383690077704066_);">
				<text transform="matrix(-1 0 0 1 273.3 -48.82)" style="fill:#153542; font-family:'Evogria'; font-size:59.7px;">+++++++</text>
				<path class="st1" d="M-8,336.9c12,4.5,24.6,7.4,37.3,8.6C152.3,357.8,285.8,240,288.7,97.1c0.6-29-4.8-55.8-17.8-74.3
					C272.1,166,114.5,324.1,0,235.9c-46-35.5-68.1-107.7-32.4-204.5C-17.7-8.4,4.6-45.6,33-75c42.9-44.6,93.1-71.3,140.5-81.5
					c34.2-7.4,68.2-7.1,102.2,4.8c-91.7-50-216.7-19.7-301.6,80.9C-125.9,47.4-132.8,217.9-41.3,310C-31.2,320.2-20.1,329.2-8,336.9
					z"/>
				<path class="st1" d="M285.2-133.3c-12-4.5-24.5-7.4-37.3-8.7C124.9-154.2-8.6-36.4-11.5,106.5c-0.6,29,4.8,55.8,17.8,74.3
					C5.1,37.6,162.7-120.5,277.2-32.3c46,35.5,68.1,107.7,32.4,204.5c-14.7,39.8-37,76.9-65.4,106.3c-42.9,44.6-93,71.3-140.5,81.5
					c-34.2,7.4-68.3,7.1-102.2-4.8c91.7,50,216.7,19.7,301.7-80.9c99.9-118.2,106.7-288.7,15.3-380.8
					C308.4-116.6,297.3-125.6,285.2-133.3L285.2-133.3z"/>
			</g>
		</g>
	</g>
</g>
</svg>
